<svg id="Group_998" data-name="Group 998" xmlns="http://www.w3.org/2000/svg" width="150" height="61.58" viewBox="0 0 150 61.58">
  <g id="Group_984" data-name="Group 984" transform="translate(28.913 45.891)">
    <path id="Path_2776" data-name="Path 2776" d="M77.1,91.365a2.707,2.707,0,0,0-1.121-.784,4.278,4.278,0,0,0-1.513-.28,5.162,5.162,0,0,0-2.129.448A5.4,5.4,0,0,0,70.6,92.037l-.056.056.224.392a.5.5,0,0,0,.448.28c.168,0,.28-.056.5-.28.168-.112.336-.28.56-.448a2.673,2.673,0,0,1,.9-.448,3.728,3.728,0,0,1,1.233-.224,2.026,2.026,0,0,1,1.737.728,3.436,3.436,0,0,1,.616,2.129v.953a20.571,20.571,0,0,0-2.914.28,8.673,8.673,0,0,0-2.129.672,3.236,3.236,0,0,0-1.233,1.009,2.18,2.18,0,0,0-.392,1.289,3.114,3.114,0,0,0,.224,1.289,2.7,2.7,0,0,0,.672.9,2.582,2.582,0,0,0,.953.5,3.519,3.519,0,0,0,1.065.168,8.393,8.393,0,0,0,1.233-.112,5.325,5.325,0,0,0,1.009-.336,4.839,4.839,0,0,0,.9-.56c.224-.168.448-.392.672-.56l.112,1.065a.48.48,0,0,0,.5.392H78V94.222a4.959,4.959,0,0,0-.224-1.625A3.7,3.7,0,0,0,77.1,91.365Zm-.392,7.284-.672.672a3.978,3.978,0,0,1-.784.56,2.475,2.475,0,0,1-.9.336,3.275,3.275,0,0,1-1.065.112,2.838,2.838,0,0,1-.728-.112,1.336,1.336,0,0,1-.616-.336,2.194,2.194,0,0,1-.448-.56,1.871,1.871,0,0,1-.168-.84,1.693,1.693,0,0,1,.28-.9,3.284,3.284,0,0,1,.953-.728,9.334,9.334,0,0,1,1.737-.5,23.718,23.718,0,0,1,2.409-.224v2.521Z" transform="translate(-59.734 -85.593)" fill="#fff"/>
    <path id="Path_2777" data-name="Path 2777" d="M111.9,91.365a2.707,2.707,0,0,0-1.121-.784,4.278,4.278,0,0,0-1.513-.28,5.162,5.162,0,0,0-2.129.448,5.4,5.4,0,0,0-1.737,1.289l-.056.056.224.392a.5.5,0,0,0,.448.28.758.758,0,0,0,.5-.28c.168-.112.336-.28.56-.448a3.349,3.349,0,0,1,.9-.448,3.728,3.728,0,0,1,1.233-.224,2.026,2.026,0,0,1,1.737.728,3.436,3.436,0,0,1,.616,2.129v.953a20.571,20.571,0,0,0-2.914.28,8.673,8.673,0,0,0-2.129.672,3.236,3.236,0,0,0-1.233,1.009,2.18,2.18,0,0,0-.392,1.289,3.114,3.114,0,0,0,.224,1.289,2.7,2.7,0,0,0,.672.9,3.115,3.115,0,0,0,.953.5,3.519,3.519,0,0,0,1.065.168,8.393,8.393,0,0,0,1.233-.112,5.325,5.325,0,0,0,1.009-.336,4.839,4.839,0,0,0,.9-.56c.224-.168.448-.392.672-.56l.112,1.065a.447.447,0,0,0,.5.392h.56V94.222a4.959,4.959,0,0,0-.224-1.625A3.7,3.7,0,0,0,111.9,91.365Zm-.392,7.284-.672.672a3.977,3.977,0,0,1-.784.56,2.475,2.475,0,0,1-.9.336,3.275,3.275,0,0,1-1.065.112,2.838,2.838,0,0,1-.728-.112,1.336,1.336,0,0,1-.616-.336,2.194,2.194,0,0,1-.448-.56,1.871,1.871,0,0,1-.168-.84,1.693,1.693,0,0,1,.28-.9,3.284,3.284,0,0,1,.953-.728,9.333,9.333,0,0,1,1.737-.5,23.718,23.718,0,0,1,2.409-.224v2.521Z" transform="translate(-75.034 -85.593)" fill="#fff"/>
    <path id="Path_2778" data-name="Path 2778" d="M136,91.265a2.707,2.707,0,0,0-1.121-.784,3.968,3.968,0,0,0-1.457-.28,3.883,3.883,0,0,0-1.121.168,4.244,4.244,0,0,0-1.009.5,5.943,5.943,0,0,0-.84.84,3.02,3.02,0,0,0-.392.728,2.875,2.875,0,0,0-.84-1.457,2.767,2.767,0,0,0-1.905-.728,3.173,3.173,0,0,0-1.009.168,6.227,6.227,0,0,0-.9.392,7.533,7.533,0,0,0-.784.616c-.168.168-.28.336-.448.5l-.056-1.121a.475.475,0,0,0-.448-.392H123v10.758h1.289V93.114a5.776,5.776,0,0,1,1.233-1.345,2.459,2.459,0,0,1,1.513-.5,1.984,1.984,0,0,1,1.681.728,3.686,3.686,0,0,1,.56,2.241v6.836h1.289V94.29A2.953,2.953,0,0,1,130.789,93a3.885,3.885,0,0,1,.56-.953,1.721,1.721,0,0,1,.84-.56,3.173,3.173,0,0,1,1.009-.168,2.21,2.21,0,0,1,1.793.728,3.564,3.564,0,0,1,.616,2.241v6.836H136.9V94.29a5.673,5.673,0,0,0-.224-1.737A3.544,3.544,0,0,0,136,91.265Z" transform="translate(-82.993 -85.549)" fill="#fff"/>
    <path id="Path_2779" data-name="Path 2779" d="M160.173,91.713a4.476,4.476,0,0,0-1.569-1.121,5.675,5.675,0,0,0-4.146,0,4.476,4.476,0,0,0-1.569,1.121,5.771,5.771,0,0,0-.953,1.737,7.226,7.226,0,0,0-.336,2.241,6.976,6.976,0,0,0,.336,2.241,5.771,5.771,0,0,0,.953,1.737,4.02,4.02,0,0,0,1.569,1.121,5.675,5.675,0,0,0,4.146,0,4.476,4.476,0,0,0,1.569-1.121,5.771,5.771,0,0,0,.953-1.737,7.226,7.226,0,0,0,.336-2.241,6.976,6.976,0,0,0-.336-2.241A6.537,6.537,0,0,0,160.173,91.713Zm-.28,5.883a4.652,4.652,0,0,1-.672,1.4,2.949,2.949,0,0,1-1.121.9,3.564,3.564,0,0,1-1.569.28,4.36,4.36,0,0,1-1.569-.28,2.95,2.95,0,0,1-1.121-.9,4.652,4.652,0,0,1-.672-1.4,7.74,7.74,0,0,1,0-3.7,4.652,4.652,0,0,1,.672-1.4,2.95,2.95,0,0,1,1.121-.9,3.419,3.419,0,0,1,1.569-.28,4.36,4.36,0,0,1,1.569.28,2.949,2.949,0,0,1,1.121.9,5.407,5.407,0,0,1,.672,1.4,7.739,7.739,0,0,1,0,3.7Z" transform="translate(-95.567 -85.549)" fill="#fff"/>
    <path id="Path_2780" data-name="Path 2780" d="M173.8,81.9h-.9V97.477h1.289V82.348A.4.4,0,0,0,173.8,81.9Z" transform="translate(-104.932 -81.9)" fill="#fff"/>
    <path id="Path_2781" data-name="Path 2781" d="M91.638,91.706l-.112-.112a.055.055,0,0,0,.056-.056.774.774,0,0,1,.224-.168l4.875-4.651H95.448a.81.81,0,0,0-.392.112.984.984,0,0,0-.28.224l-4.2,3.978c-.112.112-.168.168-.224.168s-.168.056-.224.056h-.336V82.348A.4.4,0,0,0,89.4,81.9h-.9V97.477h1.289V92.21h.336a1.988,1.988,0,0,1,.392.056c.056.056.168.112.28.224L95.168,97.2a.983.983,0,0,0,.28.224.711.711,0,0,0,.336.056h1.177l-5.043-5.491Z" transform="translate(-67.824 -81.9)" fill="#fff"/>
    <path id="Path_2782" data-name="Path 2782" d="M63.367,82.98v-.056a.307.307,0,0,0-.336-.224H51.6v1.177h5.267V97.829h1.345V83.877h5.211v-.9Z" transform="translate(-51.6 -82.252)" fill="#fff"/>
  </g>
  <path id="Path_2783" data-name="Path 2783" d="M162.505,31.946c.56,0,.84-.392.84-.953V29.2H161.44c-.56,0-.84.392-.84.953v1.793Z" transform="translate(-70.611 -12.838)" fill="#fff"/>
  <path id="Path_2784" data-name="Path 2784" d="M172.205,31.946a.857.857,0,0,0,.841-.953V29.2H171.14c-.56,0-.84.392-.84.953v1.793Z" transform="translate(-74.876 -12.838)" fill="#fff"/>
  <g id="Group_985" data-name="Group 985" transform="translate(0 10.366)">
    <path id="Path_2785" data-name="Path 2785" d="M133.677,29.987a.77.77,0,0,0-.84.728v10.03a3.188,3.188,0,0,1-.672,2.185,2.6,2.6,0,0,1-2.073.728H118.268a7.161,7.161,0,0,0,1.177-2.129,9.694,9.694,0,0,0,0-5.827,6.633,6.633,0,0,0-1.233-2.241A5.826,5.826,0,0,0,116.195,32a6.772,6.772,0,0,0-2.69-.5H97.424L109.975,19.34h-2.3a1.2,1.2,0,0,0-.672.168,1.511,1.511,0,0,0-.448.392L94.51,31.556a1.183,1.183,0,0,0-.336.9v1.009h19.331a4,4,0,0,1,1.737.336,3.073,3.073,0,0,1,1.233,1.009,4.5,4.5,0,0,1,.728,1.569,9.077,9.077,0,0,1,.28,2.241,8.616,8.616,0,0,1-.28,2.185,4.5,4.5,0,0,1-.728,1.569,3.619,3.619,0,0,1-1.233,1.009,4.177,4.177,0,0,1-1.737.336H86.5V19.34a.77.77,0,0,0-.728-.84H84.2V44.891a.77.77,0,0,0,.728.84h45.5a4.725,4.725,0,0,0,2.073-.392,4.215,4.215,0,0,0,1.513-1.009,4.785,4.785,0,0,0,.9-1.569,6.794,6.794,0,0,0,.28-1.905V29.987Z" transform="translate(-37.02 -18.5)" fill="#fff"/>
    <path id="Path_2786" data-name="Path 2786" d="M41.072,32.172a6.6,6.6,0,0,0-2.241-1.625,7.026,7.026,0,0,0-2.97-.56,7.2,7.2,0,0,0-2.97.56,6.6,6.6,0,0,0-2.241,1.625,6.86,6.86,0,0,0-1.4,2.521,11.273,11.273,0,0,0-.448,3.194v5.771H21.236a2.472,2.472,0,0,1-2.017-.728,3.188,3.188,0,0,1-.672-2.185V19.34a.77.77,0,0,0-.728-.84H16.25V46.46a4.818,4.818,0,0,1-.5,2.185,4.878,4.878,0,0,1-1.4,1.793,6.836,6.836,0,0,1-2.3,1.177,8.215,8.215,0,0,1-2.69.392,10.408,10.408,0,0,1-3.026-.392,7.724,7.724,0,0,1-2.353-1.177A5.216,5.216,0,0,1,2.521,48.59a4.931,4.931,0,0,1-.28-.84v-.056c-.056-.112-.056-.28-.112-.392v-.224a3.969,3.969,0,0,1-.056-.784,5.045,5.045,0,0,1,.168-1.4,1.521,1.521,0,0,1,.168-.9,1.267,1.267,0,0,0,.112-.728A.515.515,0,0,0,2.3,42.93c-.056-.056-.168-.112-.224-.168l-1.065-.448L.9,42.538a8.36,8.36,0,0,0-.84,2.914c0,.28-.056.56-.056.84A8.269,8.269,0,0,0,.672,49.71a7.369,7.369,0,0,0,1.905,2.578,8.59,8.59,0,0,0,2.914,1.569,12.89,12.89,0,0,0,3.754.56,11.707,11.707,0,0,0,3.866-.56,8.191,8.191,0,0,0,2.914-1.625,7.325,7.325,0,0,0,1.849-2.465,7.14,7.14,0,0,0,.616-2.914V45.172l.336.168a5.937,5.937,0,0,0,2.073.392H35.861a7.2,7.2,0,0,0,2.97-.56,5.932,5.932,0,0,0,2.241-1.625,6.2,6.2,0,0,0,1.345-2.465,11.6,11.6,0,0,0,0-6.388A6.778,6.778,0,0,0,41.072,32.172Zm-.84,8.181a4.434,4.434,0,0,1-.84,1.793,3.883,3.883,0,0,1-1.4,1.121,4.725,4.725,0,0,1-2.073.392H31.266V37.887a10.667,10.667,0,0,1,.28-2.465,4.505,4.505,0,0,1,.9-1.793,3.373,3.373,0,0,1,1.4-1.121,4.725,4.725,0,0,1,2.073-.392,5.693,5.693,0,0,1,2.073.392,3.464,3.464,0,0,1,1.4,1.121,4.815,4.815,0,0,1,.84,1.793,10.988,10.988,0,0,1,0,4.931Z" transform="translate(0 -18.5)" fill="#fff"/>
  </g>
  <path id="Path_2787" data-name="Path 2787" d="M206.305,51.446c.56,0,.841-.392.841-.953V48.7h-1.905c-.56,0-.84.392-.84.953v1.793Z" transform="translate(-89.869 -21.412)" fill="#fff"/>
  <path id="Path_2788" data-name="Path 2788" d="M191.705,46.546c.5,0,.841-.336.841-.953V43.8h-1.905c-.56,0-.84.336-.84.953v1.793Z" transform="translate(-83.45 -19.258)" fill="#fff"/>
  <path id="Path_2789" data-name="Path 2789" d="M216.005,31.946c.56,0,.841-.392.841-.953V29.2H214.94a.857.857,0,0,0-.84.953v1.793Z" transform="translate(-94.134 -12.838)" fill="#fff"/>
  <path id="Path_2790" data-name="Path 2790" d="M191.705,27.046c.5,0,.841-.336.841-.953V24.3h-1.905c-.56,0-.84.336-.84.953v1.793Z" transform="translate(-83.45 -10.684)" fill="#fff"/>
  <path id="Path_2791" data-name="Path 2791" d="M240.405,27.046c.56,0,.84-.336.84-.953V24.3H239.34c-.5,0-.84.336-.84.953v1.793Z" transform="translate(-104.862 -10.684)" fill="#fff"/>
  <path id="Path_2792" data-name="Path 2792" d="M206.305,22.246c.56,0,.841-.392.841-.953V19.5h-1.905c-.56,0-.84.392-.84.953v1.793Z" transform="translate(-89.869 -8.574)" fill="#fff"/>
  <path id="Path_2793" data-name="Path 2793" d="M225.805,22.246a.857.857,0,0,0,.84-.953V19.5H224.74c-.56,0-.84.392-.84.953v1.793Z" transform="translate(-98.442 -8.574)" fill="#fff"/>
  <path id="Path_2794" data-name="Path 2794" d="M196.605,12.446c.5,0,.84-.336.84-.953V9.7H195.54a.857.857,0,0,0-.84.953v1.793h1.905Z" transform="translate(-85.604 -4.265)" fill="#fff"/>
  <path id="Path_2795" data-name="Path 2795" d="M211.205,7.59c.5,0,.841-.336.841-.953V4.9h-1.905a.857.857,0,0,0-.84.953V7.646h1.905Z" transform="translate(-92.023 -2.154)" fill="#fff"/>
  <path id="Path_2796" data-name="Path 2796" d="M206.305,61.146c.56,0,.841-.336.841-.953V58.4h-1.905c-.56,0-.84.336-.84.953v1.793Z" transform="translate(-89.869 -25.677)" fill="#fff"/>
  <path id="Path_2797" data-name="Path 2797" d="M211.205,46.546c.5,0,.841-.336.841-.953V43.8h-1.905c-.5,0-.84.336-.84.953v1.793Z" transform="translate(-92.023 -19.258)" fill="#fff"/>
  <path id="Path_2798" data-name="Path 2798" d="M186.805,41.69c.5,0,.841-.336.841-.953V39h-1.905a.857.857,0,0,0-.84.953v1.793l1.905-.056Z" transform="translate(-81.295 -17.147)" fill="#fff"/>
  <path id="Path_2799" data-name="Path 2799" d="M196.505,41.69c.56,0,.84-.336.84-.953V39h-1.905a.857.857,0,0,0-.84.953v1.793l1.905-.056Z" transform="translate(-85.56 -17.147)" fill="#fff"/>
  <path id="Path_2800" data-name="Path 2800" d="M225.805,41.69c.5,0,.84-.336.84-.953V39H224.74c-.56,0-.84.392-.84.953v1.793l1.905-.056Z" transform="translate(-98.442 -17.147)" fill="#fff"/>
  <path id="Path_2801" data-name="Path 2801" d="M196.505,31.946c.56,0,.84-.392.84-.953V29.2h-1.905a.857.857,0,0,0-.84.953v1.793Z" transform="translate(-85.56 -12.838)" fill="#fff"/>
  <path id="Path_2802" data-name="Path 2802" d="M264.705,31.946a.857.857,0,0,0,.84-.953V29.2h-1.905a.857.857,0,0,0-.84.953v1.793Z" transform="translate(-115.546 -12.838)" fill="#fff"/>
  <path id="Path_2803" data-name="Path 2803" d="M181.905,27.046c.56,0,.84-.336.84-.953V24.3H180.84c-.5,0-.84.336-.84.953v1.793Z" transform="translate(-79.141 -10.684)" fill="#fff"/>
  <path id="Path_2804" data-name="Path 2804" d="M201.405,17.346c.56,0,.84-.336.84-.953V14.6H200.34a.857.857,0,0,0-.84.953v1.793Z" transform="translate(-87.714 -6.419)" fill="#fff"/>
  <path id="Path_2805" data-name="Path 2805" d="M225.805,12.446c.5,0,.84-.336.84-.953V9.7H224.74c-.56,0-.84.392-.84.953v1.793h1.905Z" transform="translate(-98.442 -4.265)" fill="#fff"/>
  <path id="Path_2806" data-name="Path 2806" d="M206.305,2.746c.56,0,.841-.336.841-.953V0h-1.905c-.56,0-.84.392-.84.953V2.746Z" transform="translate(-89.869)" fill="#fff"/>
  <path id="Path_2807" data-name="Path 2807" d="M220.905,56.346c.56,0,.84-.392.84-.953V53.6H219.84c-.5,0-.84.336-.84.953v1.793Z" transform="translate(-96.288 -23.566)" fill="#fff"/>
  <path id="Path_2808" data-name="Path 2808" d="M196.605,51.446a.857.857,0,0,0,.84-.953V48.7H195.54a.857.857,0,0,0-.84.953v1.793Z" transform="translate(-85.604 -21.412)" fill="#fff"/>
  <path id="Path_2809" data-name="Path 2809" d="M206.305,41.69c.56,0,.841-.336.841-.953V39h-1.905c-.56,0-.84.392-.84.953v1.793l1.905-.056Z" transform="translate(-89.869 -17.147)" fill="#fff"/>
  <path id="Path_2810" data-name="Path 2810" d="M181.905,36.846c.56,0,.84-.336.84-.953V34.1H180.84c-.5,0-.84.336-.84.953v1.793Z" transform="translate(-79.141 -14.993)" fill="#fff"/>
  <path id="Path_2811" data-name="Path 2811" d="M255.005,27.046c.56,0,.84-.336.84-.953V24.3h-1.905c-.5,0-.84.336-.84.953v1.793Z" transform="translate(-111.281 -10.684)" fill="#fff"/>
  <path id="Path_2812" data-name="Path 2812" d="M186.805,22.246a.857.857,0,0,0,.841-.953V19.5h-1.905a.857.857,0,0,0-.84.953v1.793Z" transform="translate(-81.295 -8.574)" fill="#fff"/>
  <path id="Path_2813" data-name="Path 2813" d="M196.505,22.246c.56,0,.84-.392.84-.953V19.5h-1.905a.857.857,0,0,0-.84.953v1.793Z" transform="translate(-85.56 -8.574)" fill="#fff"/>
  <path id="Path_2814" data-name="Path 2814" d="M230.605,17.346c.5,0,.84-.336.84-.953V14.6h-1.905a.857.857,0,0,0-.841.953v1.793Z" transform="translate(-100.553 -6.419)" fill="#fff"/>
  <path id="Path_2815" data-name="Path 2815" d="M216.005,2.746c.56,0,.841-.336.841-.953V0H214.94a.857.857,0,0,0-.84.953V2.746Z" transform="translate(-94.134)" fill="#fff"/>
  <path id="Path_2816" data-name="Path 2816" d="M201.405,36.846c.56,0,.84-.336.84-.953V34.1H200.34c-.5,0-.84.336-.84.953v1.793Z" transform="translate(-87.714 -14.993)" fill="#fff"/>
  <path id="Path_2817" data-name="Path 2817" d="M216.005,22.246c.56,0,.841-.392.841-.953V19.5H214.94a.857.857,0,0,0-.84.953v1.793Z" transform="translate(-94.134 -8.574)" fill="#fff"/>
  <path id="Path_2818" data-name="Path 2818" d="M191.705,17.346c.5,0,.841-.336.841-.953V14.6h-1.905c-.56,0-.84.392-.84.953v1.793Z" transform="translate(-83.45 -6.419)" fill="#fff"/>
  <path id="Path_2819" data-name="Path 2819" d="M235.505,36.846c.5,0,.84-.336.84-.953V34.1H234.44c-.5,0-.84.336-.84.953v1.793Z" transform="translate(-102.707 -14.993)" fill="#fff"/>
  <path id="Path_2820" data-name="Path 2820" d="M211.205,56.346a.858.858,0,0,0,.841-.953V53.6h-1.905c-.5,0-.84.336-.84.953v1.793Z" transform="translate(-92.023 -23.566)" fill="#fff"/>
  <path id="Path_2821" data-name="Path 2821" d="M216.005,41.69c.56,0,.841-.336.841-.953V39H214.94a.857.857,0,0,0-.84.953v1.793l1.905-.056Z" transform="translate(-94.134 -17.147)" fill="#fff"/>
  <path id="Path_2822" data-name="Path 2822" d="M245.205,41.69c.56,0,.84-.336.84-.953V39H244.14c-.56,0-.84.392-.84.953v1.793l1.905-.056Z" transform="translate(-106.972 -17.147)" fill="#fff"/>
  <path id="Path_2823" data-name="Path 2823" d="M191.705,36.846c.5,0,.841-.336.841-.953V34.1h-1.905c-.56,0-.84.336-.84.953v1.793Z" transform="translate(-83.45 -14.993)" fill="#fff"/>
  <path id="Path_2824" data-name="Path 2824" d="M186.805,31.946a.857.857,0,0,0,.841-.953V29.2h-1.905a.857.857,0,0,0-.84.953v1.793Z" transform="translate(-81.295 -12.838)" fill="#fff"/>
  <path id="Path_2825" data-name="Path 2825" d="M206.305,31.946c.56,0,.841-.392.841-.953V29.2h-1.905c-.56,0-.84.392-.84.953v1.793Z" transform="translate(-89.869 -12.838)" fill="#fff"/>
  <path id="Path_2826" data-name="Path 2826" d="M225.805,31.946a.857.857,0,0,0,.84-.953V29.2H224.74c-.56,0-.84.392-.84.953v1.793Z" transform="translate(-98.442 -12.838)" fill="#fff"/>
  <path id="Path_2827" data-name="Path 2827" d="M216.005,12.446c.56,0,.841-.336.841-.953V9.7H214.94a.857.857,0,0,0-.84.953v1.793h1.905Z" transform="translate(-94.134 -4.265)" fill="#fff"/>
  <path id="Path_2828" data-name="Path 2828" d="M201.405,7.59c.56,0,.84-.336.84-.953V4.9H200.34a.857.857,0,0,0-.84.953V7.646h1.905Z" transform="translate(-87.714 -2.154)" fill="#fff"/>
  <path id="Path_2829" data-name="Path 2829" d="M201.405,56.346c.56,0,.84-.392.84-.953V53.6H200.34c-.5,0-.84.336-.84.953v1.793Z" transform="translate(-87.714 -23.566)" fill="#fff"/>
</svg>
