<svg xmlns="http://www.w3.org/2000/svg" width="80" height="80" viewBox="0 0 80 80">
    <g fill="none" fill-rule="evenodd">
        <path d="M8 8h64v64H8z"/>
        <path fill="#82C947" fill-rule="nonzero" d="M48 10.667H32V16h16v-5.333zM37.333 45.333h5.334v-16h-5.334v16zm21.414-17.626l3.786-3.787c-1.146-1.36-2.4-2.64-3.76-3.76l-3.786 3.787c-4.134-3.307-9.334-5.28-14.987-5.28-13.253 0-24 10.746-24 24 0 13.253 10.72 24 24 24s24-10.747 24-24c0-5.654-1.973-10.854-5.253-14.96zM40 61.333c-10.32 0-18.667-8.346-18.667-18.666S29.68 24 40 24c10.32 0 18.667 8.347 18.667 18.667 0 10.32-8.347 18.666-18.667 18.666z"/>
    </g>
</svg>
