<svg id="Layer_1" data-name="Layer 1" xmlns="http://www.w3.org/2000/svg" viewBox="0 0 100 100"><defs><style>.cls-1{fill:#120f10;}.cls-2{fill:#fff;}.cls-3{fill:none;stroke:#fff;stroke-miterlimit:10;}</style></defs><title>icons</title><rect class="cls-1" x="5" y="5" width="90" height="90" rx="45"/><circle class="cls-1" cx="50" cy="50" r="34.75"/><path class="cls-2" d="M50,16.25A33.75,33.75,0,0,1,83.75,50h0A33.75,33.75,0,0,1,50,83.75h0A33.75,33.75,0,0,1,16.25,50h0A33.75,33.75,0,0,1,50,16.25h0m0-2A35.75,35.75,0,1,0,85.75,50,35.79,35.79,0,0,0,50,14.25Z"/><path class="cls-2" d="M32.24,68.11a9.81,9.81,0,0,1-2.07-3.39,12.4,12.4,0,0,1-.7-3.85A17.72,17.72,0,0,1,29.8,57a24.4,24.4,0,0,1,1-3.7,31.2,31.2,0,0,1,1.54-3.5,35,35,0,0,1,1.92-3.3l.26-.39.27-.4.55-.77c.38-.51.76-1,1.16-1.51s.81-1,1.22-1.47S38.59,41,39,40.58q1.3-1.38,2.73-2.64c.95-.84,1.94-1.64,2.95-2.39a38.44,38.44,0,0,1,6.52-3.91,26.92,26.92,0,0,1,7.24-2.29,17.44,17.44,0,0,1,3.82-.21,13.66,13.66,0,0,1,1.91.24,12.2,12.2,0,0,1,1.85.54.28.28,0,0,1,.17.36.3.3,0,0,1-.36.17h0A13.23,13.23,0,0,0,64.09,30a13.89,13.89,0,0,0-1.82-.21,16.93,16.93,0,0,0-3.69.24,26.65,26.65,0,0,0-7,2.3,37.51,37.51,0,0,0-6.35,3.89c-1,.75-1.95,1.55-2.88,2.38s-1.81,1.7-2.66,2.61c-.43.45-.83.92-1.25,1.38s-.8,1-1.18,1.44-.75,1-1.12,1.49l-.53.77c-.09.12-.17.25-.25.38l-.26.39a36.79,36.79,0,0,0-1.84,3.23,29.93,29.93,0,0,0-1.45,3.4,23.1,23.1,0,0,0-1,3.56,16.42,16.42,0,0,0-.28,3.63,11.92,11.92,0,0,0,.66,3.52,8.85,8.85,0,0,0,1.87,3h0a.56.56,0,0,1,0,.8.57.57,0,0,1-.8,0Z"/><path class="cls-2" d="M69,68.75a9.66,9.66,0,0,1-2.89,1.88,12.05,12.05,0,0,1-3.32.82,15.81,15.81,0,0,1-3.37,0c-.28,0-.56-.06-.83-.11l-.83-.14L57,71l-.41-.1-.4-.11A26.48,26.48,0,0,1,53,69.68c-1-.44-2-.91-3-1.44s-1.92-1.09-2.83-1.71l-.34-.23-.34-.24-.67-.47-.66-.5-.33-.25-.32-.26-.65-.51-.63-.54L43,63.27,42.66,63l-.61-.55-.6-.57c-.19-.19-.4-.38-.59-.58-.38-.39-.77-.77-1.14-1.18A43.34,43.34,0,0,1,35.6,55l-.45-.69-.23-.34-.22-.35-.43-.7-.41-.72c-.28-.47-.52-1-.78-1.45L32.72,50c-.11-.25-.24-.5-.34-.75l-.33-.76c-.11-.25-.2-.51-.3-.77l-.15-.38-.14-.39-.27-.78a29,29,0,0,1-.8-3.21.28.28,0,0,1,.23-.33.29.29,0,0,1,.33.23h0A25.51,25.51,0,0,0,31.76,46l.27.76c0,.13.09.26.14.38l.15.38c.11.25.2.5.31.75L33,49c.1.24.23.48.35.73s.23.48.36.72c.25.47.5,1,.78,1.42l.41.7.43.68.21.34.23.34.45.67a42.83,42.83,0,0,0,4.11,5c.36.4.75.78,1.13,1.16l.59.56.59.55.61.53.3.27.31.26.62.52.64.5.32.25.32.24.65.47.67.46.33.23.34.22c.9.6,1.83,1.13,2.78,1.64a28.49,28.49,0,0,0,2.91,1.36,25.23,25.23,0,0,0,3,1l.39.1c.13,0,.25.07.39.09l.78.17.78.13c.26,0,.53.06.79.09a14.42,14.42,0,0,0,3.15,0,11,11,0,0,0,3-.77,8.51,8.51,0,0,0,2.54-1.68h0a.57.57,0,0,1,.8,0,.58.58,0,0,1,0,.8Z"/><circle class="cls-3" cx="69.28" cy="32.34" r="2.83"/><path class="cls-2" d="M45.38,70.56h0c-5.59,1.4-10.25.52-13.13-2.45a.56.56,0,0,1,0-.8.57.57,0,0,1,.8,0c2.58,2.68,6.86,3.44,12,2.15h0C50.4,68.15,56,64.86,60.79,60.2c8.6-8.3,12.63-18.94,9.59-25.29a.55.55,0,0,1,.26-.75.57.57,0,0,1,.76.26c1.57,3.29,1.46,7.76-.33,12.6a38.87,38.87,0,0,1-9.5,14C56.61,65.81,50.86,69.2,45.38,70.56Z"/><circle class="cls-3" cx="30.33" cy="38.95" r="2.83"/><path class="cls-2" d="M68.79,68.89a.57.57,0,0,1-.55-.15.56.56,0,0,1,0-.8c2.67-2.59,3.43-6.87,2.14-12S65.79,45,61.14,40.2,51,31.9,45.78,30.4s-9.44-.86-12.11,1.72a8.71,8.71,0,0,0-2.36,4.17.57.57,0,1,1-1.1-.28,9.89,9.89,0,0,1,2.67-4.7c3-2.88,7.67-3.59,13.22-2S57.16,34.45,62,39.42s8.18,10.71,9.55,16.2S72,65.87,69,68.75A.52.52,0,0,1,68.79,68.89Z"/><path class="cls-2" d="M48.09,38.5a11.88,11.88,0,1,0,14.4,8.65A11.9,11.9,0,0,0,48.09,38.5Z"/></svg>