<svg id="Layer_1" data-name="Layer 1" xmlns="http://www.w3.org/2000/svg" viewBox="0 0 100 100"><defs><style>.cls-1{fill:#120f10;}</style></defs><title>icons</title><path class="cls-1" d="M18.61,68.46c0,3.61-2.65,5.8-7,5.8H7.41v5H5V62.65h6.58C16,62.65,18.61,64.84,18.61,68.46Zm-2.41,0c0-2.38-1.61-3.74-4.7-3.74H7.41v7.47H11.5C14.59,72.19,16.2,70.84,16.2,68.46Z"/><path class="cls-1" d="M21,71c0-4.88,3.81-8.51,9-8.51s8.93,3.61,8.93,8.51-3.8,8.51-8.93,8.51S21,75.85,21,71Zm15.52,0A6.3,6.3,0,0,0,30,64.58a6.4,6.4,0,1,0,0,12.8A6.3,6.3,0,0,0,36.53,71Z"/><path class="cls-1" d="M42.62,62.65H45V79.3H42.62Z"/><path class="cls-1" d="M64.58,62.65V79.3h-2L52.49,66.89V79.3H50.08V62.65h2L62.17,75.07V62.65Z"/><path class="cls-1" d="M73,64.72H67.21V62.65H81.15v2.07H75.37V79.3H73Z"/><path class="cls-1" d="M82,77.4l.89-1.86a8.71,8.71,0,0,0,5.56,1.93c2.92,0,4.17-1.12,4.17-2.57,0-4.06-10.21-1.5-10.21-7.68,0-2.57,2-4.75,6.45-4.75a10,10,0,0,1,5.42,1.47l-.79,1.9a8.76,8.76,0,0,0-4.63-1.35c-2.86,0-4.09,1.19-4.09,2.64,0,4.06,10.21,1.52,10.21,7.63,0,2.54-2.07,4.73-6.53,4.73A10.05,10.05,0,0,1,82,77.4Z"/><path class="cls-1" d="M21,21.13V57.66H12.4V27.92H5V21.13Z"/><path class="cls-1" d="M27.41,39.4c0-12.06,6.76-18.89,15.86-18.89S59.12,27.34,59.12,39.4,52.41,58.29,43.27,58.29,27.41,51.45,27.41,39.4Zm23.1,0c0-8.3-3-11.74-7.24-11.74S36.08,31.1,36.08,39.4s3,11.74,7.19,11.74S50.51,47.7,50.51,39.4Z"/><path class="cls-1" d="M63.29,39.4c0-12.06,6.76-18.89,15.85-18.89S95,27.34,95,39.4,88.29,58.29,79.14,58.29,63.29,51.45,63.29,39.4Zm23.1,0c0-8.3-3-11.74-7.25-11.74S72,31.1,72,39.4s3,11.74,7.18,11.74S86.39,47.7,86.39,39.4Z"/></svg>