<svg xmlns="http://www.w3.org/2000/svg" width="402" height="402" viewBox="0 0 402 402"><path fill="#c3c3c3" d="M237.5 301.5h-73.1c-4.9 0-9.2 1.8-12.9 5.4 -3.6 3.6-5.4 7.9-5.4 12.8v64c0 4.9 1.8 9.2 5.4 12.9 3.6 3.6 7.9 5.4 12.9 5.4h73.1c4.9 0 9.2-1.8 12.8-5.4 3.6-3.6 5.4-7.9 5.4-12.9v-64c0-4.9-1.8-9.2-5.4-12.8C246.8 303.3 242.5 301.5 237.5 301.5z"/><path fill="#c3c3c3" d="M259.4 5.4C255.9 1.8 251.6 0 246.7 0h-91.4c-4.9 0-9.2 1.8-12.7 5.4 -3.5 3.6-5.2 7.9-5 12.9l8 219.3c0.2 4.9 2.1 9.2 5.9 12.8 3.7 3.6 8 5.4 13 5.4h73.1c4.9 0 9.3-1.8 13-5.4 3.7-3.6 5.7-7.9 5.9-12.8l8-219.3C264.6 13.3 262.9 9 259.4 5.4z"/></svg>
